<svg version="1.1" xmlns="http://www.w3.org/2000/svg" viewBox="0 0 347.1233793398044 430.7764020296944" width="347.1233793398044" height="430.7764020296944">
  <!-- svg-source:excalidraw -->
  
  <defs>
    <style class="style-fonts">
      @font-face {
        font-family: "Virgil";
        src: url("https://excalidraw.com/Virgil.woff2");
      }
      @font-face {
        font-family: "Cascadia";
        src: url("https://excalidraw.com/Cascadia.woff2");
      }
    </style>
    
  </defs>
  <g stroke-linecap="round"><g transform="translate(159.93214429447664 342.77640202977796) rotate(0 13.62954537542555 -165.41848897170792)" fill-rule="evenodd"><path d="M-1.83 -1.75 L29.25 0.06 L30.03 -71.87 L111.28 -62.38 L93.01 -90.25 L175.29 -156.8 L155.1 -166.58 L176.23 -224.49 L132.55 -214.47 L113.13 -237.03 L51.45 -177.23 L84.76 -291 L47.65 -272.27 L12.29 -332.02 L-20.87 -272.46 L-58.53 -296.85 L-24.3 -176.89 L-86.21 -237.97 L-99.78 -210.72 L-150.76 -226.2 L-124.16 -165.74 L-146.68 -152.41 L-66.74 -88.93 L-77.95 -64.48 L2.21 -71.05 L0.11 -0.07" stroke="none" stroke-width="0" fill="#e03131" fill-rule="evenodd"></path><path d="M-1.24 1.94 C10.86 1.54, 19.42 -0.63, 29.6 -1.29 M-0.12 0.07 C5.85 0.7, 13.95 -1.04, 28.73 0.86 M29.14 0.45 C29.19 -20.12, 29.22 -41.69, 27.92 -70.86 M28.25 0.79 C29.63 -23.65, 28.75 -46.01, 28.16 -70.51 M28.33 -70.39 C47.83 -68.89, 71.14 -65.88, 109.69 -59.35 M30.05 -69.52 C49.43 -67.11, 71.69 -66.32, 109.13 -60.79 M110.21 -60.17 C104.64 -65.94, 103.36 -71.23, 89.85 -89.32 M109.02 -61.09 C103.69 -71.18, 96.57 -80.28, 91.62 -90.13 M91.97 -89.25 C112.32 -108.53, 134.34 -124.21, 176.03 -153.13 M90.74 -89.93 C124.48 -114.82, 158.61 -140.16, 176.49 -154.15 M176.55 -156.73 C168.88 -160.83, 163.23 -164.61, 156.94 -165.13 M177.19 -155.05 C170.19 -158.78, 161.33 -162.12, 156 -165.42 M156.92 -164.78 C159.71 -180.84, 164.24 -196.95, 175.75 -226.33 M155.25 -165.83 C161.27 -182.87, 166.62 -199.33, 175.44 -225.16 M173.54 -223.16 C162.31 -220.89, 152.47 -219.01, 132.86 -214.49 M176.3 -225.89 C157.81 -221.46, 140.68 -216.62, 132.04 -214.67 M133.09 -215.44 C127.62 -221.28, 120.32 -226.66, 114.48 -237.28 M131.19 -214.37 C124.19 -222.38, 119.45 -228.07, 113.82 -235.59 M113.06 -236.06 C101.33 -225.02, 86.41 -213.74, 53.45 -179.65 M113.04 -236.28 C90.09 -215.96, 68.16 -193.72, 52.46 -178.46 M50.57 -177.73 C61.39 -222.41, 75.13 -264.64, 83.95 -293.72 M52.15 -179.01 C62.54 -217.39, 74.11 -256.34, 84.32 -291.85 M85.09 -293.39 C73.2 -287.26, 64.44 -279.88, 46.71 -269.35 M84.99 -291.49 C74.31 -286.32, 64.01 -279.51, 47.78 -270.06 M47.63 -270.66 C36.24 -292.65, 21.87 -312.31, 12.66 -332.78 M47.54 -271.88 C40.58 -284.69, 34.15 -297.78, 13.08 -330.97 M12.38 -330.55 C4.94 -315.77, -6.09 -299.18, -18.85 -276.19 M13.16 -331.41 C2.82 -311.39, -10.26 -292.96, -19.22 -274.8 M-21.01 -273.04 C-33.44 -282.65, -44.61 -287.06, -55.95 -295.12 M-18.99 -275.19 C-29.83 -279.95, -38.72 -284.51, -56.05 -294.71 M-55.38 -294.45 C-43.01 -255.98, -33.75 -212.26, -24.55 -179.31 M-55.73 -294.7 C-48.11 -263.58, -40.69 -233.08, -25.84 -176.81 M-26.37 -178.3 C-37.59 -188.88, -50.72 -203.56, -84.3 -237.49 M-25.88 -177.94 C-42.43 -194.15, -62.17 -212.35, -84.4 -238.15 M-86.36 -236.09 C-87.17 -232.23, -92.44 -226.54, -100.23 -212.35 M-86.13 -237.3 C-91.62 -227.95, -97.36 -218.68, -100.25 -212.89 M-100.08 -214.3 C-117.66 -217.43, -132.11 -220.37, -149.93 -227.35 M-100.41 -211.82 C-118.32 -216.72, -136.41 -221.66, -149.71 -226.28 M-147.85 -225.17 C-144.01 -210.2, -138.64 -195.38, -125.11 -163.93 M-148.9 -225.09 C-142 -204.61, -132.48 -184.66, -126.21 -165.07 M-127.09 -163.93 C-132.82 -160.77, -143.98 -155.8, -146.52 -152.59 M-125.47 -165.73 C-130.03 -162.83, -134.82 -159.18, -147.1 -151.77 M-147.29 -151.84 C-118.31 -129.93, -85.18 -107.47, -64.48 -90.22 M-146.31 -151.6 C-114.25 -128.28, -83.3 -102.64, -65.89 -89.16 M-66.45 -89.6 C-70.07 -83.67, -73.9 -78.61, -78.84 -66.49 M-64.34 -90.35 C-70.38 -79.22, -77.3 -68.59, -80.1 -63.87 M-79.18 -63.63 C-62.94 -67.32, -41.82 -67.54, 1.8 -71.59 M-78.98 -64.96 C-58.32 -65.52, -35.34 -68.54, 1.74 -71.35 M0.24 -69.92 C2.37 -56.34, 2.09 -38.31, -0.63 -0.47 M0.86 -70.75 C1.52 -44.52, -0.11 -18.07, -0.48 0.78 M0 0 C0 0, 0 0, 0 0 M0 0 C0 0, 0 0, 0 0" stroke="#e03131" stroke-width="1" fill="none"></path></g></g><mask></mask><g transform="translate(72.10335379343735 375.7764020296944) rotate(0 101.45833587646479 22.5)"><text x="0" y="0" font-family="Virgil, Segoe UI Emoji" font-size="36px" fill="#e03131" text-anchor="start" style="white-space: pre;" direction="ltr" dominant-baseline="text-before-edge">Coming soon</text></g></svg>